<!-- icons/icons.svg -->
<!-- IMPORTANT style="display: none" ensures the full sprite SVG is not visible on screen. -->
<svg xmlns="http://www.w3.org/2000/svg" style="display: none;">
	<!-- Eye closed -->
	<symbol id="icon-eye-closed" viewBox="0 0 24 24" fill="none" stroke="currentColor">
		<path stroke-linecap="round" stroke-linejoin="round" stroke-width="2"
			d="M13.875 18.825A10.05 10.05 0 0112 19c-4.477 0-8.268-2.943-9.542-7
			a9.96 9.96 0 012.293-3.95m2.241-2.241A9.956 9.956 0 0112 5c4.477 0
			8.268 2.943 9.542 7a9.956 9.956 0 01-4.109 5.198M15 12a3 3 0 11-6 0
			3 3 0 016 0z" />
		<path stroke-linecap="round" stroke-linejoin="round" stroke-width="2"
			d="M3 3l18 18" />
	</symbol>

	<!-- Eye open -->
	<symbol id="icon-eye-open" viewBox="0 0 24 24" fill="none" stroke="currentColor">
		<path stroke-linecap="round" stroke-linejoin="round" stroke-width="2"
			d="M15 12a3 3 0 11-6 0 3 3 0 016 0z" />
		<path stroke-linecap="round" stroke-linejoin="round" stroke-width="2"
			d="M2.458 12C3.732 7.943 7.523 5 12 5c4.477 0 8.268 2.943
			9.542 7-1.274 4.057-5.065 7-9.542 7-4.477 0-8.268-2.943-9.542-7z" />
	</symbol>

	<!-- Error icon -->
  <symbol id="icon-error" viewBox="0 0 24 24">
		<path
			stroke-linecap="round"
			stroke-linejoin="round"
			stroke-width="1.5"
			d="M12 9v3.75m9-.75a9 9 0 1 1-18 0 9 9 0 0 1 18 0Zm-9 3.75h.008v.008H12v-.008Z"
		/>
	</symbol>

	<!-- Squares-four -->
	<symbol id="grid-menu" viewBox="0 0 256 256">
		<rect width="256" height="256" fill="none"/>
		<rect x="48" y="48" width="64" height="64" rx="8" fill="none" stroke="currentColor" stroke-linecap="round" stroke-linejoin="round" stroke-width="16"/>
		<rect x="144" y="48" width="64" height="64" rx="8" fill="none" stroke="currentColor" stroke-linecap="round" stroke-linejoin="round" stroke-width="16"/>
		<rect x="48" y="144" width="64" height="64" rx="8" fill="none" stroke="currentColor" stroke-linecap="round" stroke-linejoin="round" stroke-width="16"/>
		<rect x="144" y="144" width="64" height="64" rx="8" fill="none" stroke="currentColor" stroke-linecap="round" stroke-linejoin="round" stroke-width="16"/>
	</symbol>

	<!-- Search icon -->
	<symbol id="search-icon" viewBox="0 0 256 256">
		<rect width="256" height="256" fill="none"/>
		<circle cx="112" cy="112" r="80" fill="none" stroke="currentColor" stroke-linecap="round" stroke-linejoin="round" stroke-width="16"/>
		<line x1="168.57" y1="168.57" x2="224" y2="224" fill="none" stroke="currentColor" stroke-linecap="round" stroke-linejoin="round" stroke-width="16"/>
	</symbol>

	<!-- Bell icon -->
  <symbol id="bell" viewBox="0 0 256 256">
    <path d="M96,192a32,32,0,0,0,64,0" fill="none" stroke="currentColor" stroke-linecap="round" stroke-linejoin="round" stroke-width="16"/>
    <path d="M56,104a72,72,0,0,1,144,0c0,35.82,8.3,64.6,14.9,76A8,8,0,0,1,208,192H48a8,8,0,0,1-6.88-12C47.71,168.6,56,139.81,56,104Z" fill="none" stroke="currentColor" stroke-linecap="round" stroke-linejoin="round" stroke-width="16"/>
  </symbol>

	<!-- Favorite star icon -->
  <symbol id="favorite" viewBox="0 0 256 256">
    <path d="M128,189.09l54.72,33.65a8.4,8.4,0,0,0,12.52-9.17l-14.88-62.79,48.7-42A8.46,8.46,0,0,0,224.27,94L160.36,88.8,135.74,29.2a8.36,8.36,0,0,0-15.48,0L95.64,88.8,31.73,94a8.46,8.46,0,0,0-4.79,14.83l48.7,42L60.76,213.57a8.4,8.4,0,0,0,12.52,9.17Z" fill="none" stroke="currentColor" stroke-linecap="round" stroke-linejoin="round" stroke-width="16"/>
  </symbol>

	<!-- Icon left icon -->
  <symbol id="icon-arrow-left" viewBox="0 0 256 256">
    <rect width="256" height="256" fill="none"/>
    <line x1="216" y1="128" x2="40" y2="128" fill="none" stroke="currentColor" stroke-linecap="round" stroke-linejoin="round" stroke-width="16"/>
    <polyline points="112 56 40 128 112 200" fill="none" stroke="currentColor" stroke-linecap="round" stroke-linejoin="round" stroke-width="16"/>
  </symbol>

	<!-- Gear icon -->
  <symbol id="icon-gear" viewBox="0 0 256 256">
    <rect width="256" height="256" fill="none"/>
    <circle cx="128" cy="128" r="40" fill="none" stroke="currentColor" stroke-linecap="round" stroke-linejoin="round" stroke-width="16"/>
    <path d="M130.05,206.11c-1.34,0-2.69,0-4,0L94,224a104.61,104.61,0,0,1-34.11-19.2l-.12-36c-.71-1.12-1.38-2.25-2-3.41L25.9,147.24a99.15,99.15,0,0,1,0-38.46l31.84-18.1c.65-1.15,1.32-2.29,2-3.41l.16-36A104.58,104.58,0,0,1,94,32l32,17.89c1.34,0,2.69,0,4,0L162,32a104.61,104.61,0,0,1,34.11,19.2l.12,36c.71,1.12,1.38,2.25,2,3.41l31.85,18.14a99.15,99.15,0,0,1,0,38.46l-31.84,18.1c-.65,1.15-1.32,2.29-2,3.41l-.16,36A104.58,104.58,0,0,1,162,224Z" fill="none" stroke="currentColor" stroke-linecap="round" stroke-linejoin="round" stroke-width="16"/>
  </symbol>

	<!-- Headset contact us -->
  <symbol id="icon-user" viewBox="0 0 256 256">
    <rect width="256" height="256" fill="none"/>
    <path d="M224,200v8a32,32,0,0,1-32,32H136" fill="none" stroke="currentColor" stroke-linecap="round" stroke-linejoin="round" stroke-width="16"/>
    <path d="M224,128H192a16,16,0,0,0-16,16v40a16,16,0,0,0,16,16h32V128a96,96,0,1,0-192,0v56a16,16,0,0,0,16,16H64a16,16,0,0,0,16-16V144a16,16,0,0,0-16-16H32" fill="none" stroke="currentColor" stroke-linecap="round" stroke-linejoin="round" stroke-width="16"/>
  </symbol>

	<!-- Greater than arrow -->
	<symbol id="icon-arrow-right" viewBox="0 0 256 256">
		<rect width="256" height="256" fill="none"/>
		<polyline 
			points="64 56 216 128 64 200" 
			fill="none" 
			stroke="currentColor" 
			stroke-linecap="round" 
			stroke-linejoin="round" 
			stroke-width="16"
		/>
	</symbol>

	<!-- Instagram icon -->
	<symbol id="icon-instagram" viewBox="0 0 24 24">
		<!-- Outer rounded square -->
		<rect x="2" y="2" width="20" height="20" rx="5" ry="5"
			fill="none" stroke="currentColor" stroke-width="2" stroke-linecap="round" stroke-linejoin="round" />
		<!-- Lens -->
		<circle cx="12" cy="12" r="5"
			fill="none" stroke="currentColor" stroke-width="2" stroke-linecap="round" stroke-linejoin="round" />
		<!-- Small flash dot -->
		<circle cx="18" cy="6" r="1.5" fill="currentColor" />
	</symbol>

	<!-- Twitter/X icon -->
	<symbol id="icon-twitter" viewBox="0 0 24 24">
  	<path fill="currentColor" d="M19.633 7.997c.013.18.013.361.013.54 0 5.507-4.193 11.854-11.854 11.854-2.355 0-4.547-.69-6.392-1.874.33.04.647.053.99.053 1.954 0 3.753-.66 5.182-1.78a4.182 4.182 0 0 1-3.902-2.898c.26.04.52.066.793.066.377 0 .753-.053 1.103-.14a4.176 4.176 0 0 1-3.35-4.094v-.053a4.23 4.23 0 0 0 1.88.52 4.17 4.17 0 0 1-1.865-3.478c0-.78.207-1.487.573-2.105a11.85 11.85 0 0 0 8.605 4.37 4.71 4.71 0 0 1-.106-.956 4.175 4.175 0 0 1 7.223-2.855 8.18 8.18 0 0 0 2.645-1.013 4.148 4.148 0 0 1-1.835 2.303 8.324 8.324 0 0 0 2.403-.647 8.904 8.904 0 0 1-2.09 2.167z"/>
	</symbol>

	<!-- LinkedIn icon -->
	<symbol id="icon-linkedin" viewBox="0 0 24 24">
  	<path fill="currentColor" d="M4.98 3.5C4.98 4.88 3.88 6 2.5 6S0 4.88 0 3.5 1.12 1 2.5 1 4.98 2.12 4.98 3.5zM.5 8.5h4V24h-4V8.5zm7.5 0h3.8v2.1h.05c.53-1 1.82-2.1 3.75-2.1 4.01 0 4.75 2.64 4.75 6.1V24h-4v-7.6c0-1.8-.03-4.1-2.5-4.1-2.5 0-2.9 1.9-2.9 4v7.7h-4V8.5z"/>
	</symbol>

	<!-- Mode/Theme icon -->
	<symbol id="icon-theme-toggle" viewBox="0 0 24 24" fill="currentColor">
    <path d="M12 2a9.99 9.99 0 00-7.07 2.93A10 10 0 1012 2zm0 18a8 8 0 010-16v16z"/>
  </symbol>

	<!-- Font icon -->
	<symbol id="icon-font-typo" viewBox="0 0 256 256">
		<rect width="256" height="256" fill="none"/>
		<polyline points="144 192 80 56 16 192" 
			fill="none" stroke="currentColor" 
			stroke-linecap="round" stroke-linejoin="round" 
			stroke-width="16"/>
		<ellipse cx="200" cy="164" rx="32" ry="28" 
			fill="none" stroke="currentColor" 
			stroke-linecap="round" stroke-linejoin="round" 
			stroke-width="16"/>
		<path d="M232,192V132c0-15.46-14.33-28-32-28-9.56,0-18.14,2.18-24,8" 
			fill="none" stroke="currentColor" 
			stroke-linecap="round" stroke-linejoin="round" 
			stroke-width="16"/>
		<line x1="125.18" y1="152" x2="34.82" y2="152" 
				fill="none" stroke="currentColor" 
        stroke-linecap="round" stroke-linejoin="round" 
        stroke-width="16"/>
	</symbol>

	<!-- Change username icon -->
	<symbol id="icon-user-text" viewBox="0 0 24 24" fill="none" stroke="currentColor">
		<circle cx="12" cy="7" r="4" stroke-width="2"/>
		<path d="M6 21v-2a4 4 0 014-4h0a4 4 0 014 4v2" stroke-width="2"/>
		<path d="M16 19h6M16 15h6" stroke-width="2"/>
	</symbol>

	<!-- Change password icon -->
	<symbol id="icon-change-password" viewBox="0 0 24 24" fill="none" stroke="currentColor">
		<rect x="3" y="11" width="18" height="11" rx="2" ry="2" stroke-width="2"/>
		<path d="M7 11V7a5 5 0 0110 0v4" stroke-width="2" stroke-linecap="round"/>
		<path d="M15.5 14.5l2-2a1 1 0 011.5 1.5l-2 2-2.5.5.5-2.5z" stroke-width="2" stroke-linecap="round" stroke-linejoin="round"/>
	</symbol>

	<!-- Logout -->
	<symbol id="icon-logout" viewBox="0 0 24 24" fill="none" stroke="currentColor">
		<path d="M9 21H5a2 2 0 0 1-2-2V5a2 2 0 0 1 2-2h4" stroke-width="2" stroke-linecap="round"/>
		<polyline points="16 17 21 12 16 7" stroke-width="2" stroke-linecap="round" stroke-linejoin="round"/>
		<line x1="21" y1="12" x2="9" y2="12" stroke-width="2" stroke-linecap="round"/>
	</symbol>

	<!-- User icon circle -->
	<symbol id="icon-user-circle" viewBox="0 0 256 256">
		<rect width="256" height="256" fill="none"/>
		<circle cx="128" cy="128" r="96" fill="none" stroke="currentColor" stroke-linecap="round" stroke-linejoin="round" stroke-width="16"/>
		<circle cx="128" cy="120" r="40" fill="none" stroke="currentColor" stroke-linecap="round" stroke-linejoin="round" stroke-width="16"/>
		<path d="M63.8,199.37a72,72,0,0,1,128.4,0" fill="none" stroke="currentColor" stroke-linecap="round" stroke-linejoin="round" stroke-width="16"/>
	</symbol>

	<!-- Settings icon -->
	<symbol id="icon-gear" viewBox="0 0 256 256">
		<rect width="256" height="256" fill="none"/>
		<circle cx="128" cy="128" r="40" fill="none" stroke="currentColor" stroke-linecap="round" stroke-linejoin="round" stroke-width="16"/>
		<path d="M130.05,206.11c-1.34,0-2.69,0-4,0L94,224a104.61,104.61,0,0,1-34.11-19.2l-.12-36c-.71-1.12-1.38-2.25-2-3.41L25.9,147.24a99.15,99.15,0,0,1,0-38.46l31.84-18.1c.65-1.15,1.32-2.29,2-3.41l.16-36A104.58,104.58,0,0,1,94,32l32,17.89c1.34,0,2.69,0,4,0L162,32a104.61,104.61,0,0,1,34.11,19.2l.12,36c.71,1.12,1.38,2.25,2,3.41l31.85,18.14a99.15,99.15,0,0,1,0,38.46l-31.84,18.1c-.65,1.15-1.32,2.29-2,3.41l-.16,36A104.58,104.58,0,0,1,162,224Z" fill="none" stroke="currentColor" stroke-linecap="round" stroke-linejoin="round" stroke-width="16"/>
	</symbol>

  <!-- Sun icon -->
	<symbol id="sun" viewBox="0 0 256 256" fill="currentColor">
		<rect width="256" height="256" fill="none"/>
		<line x1="128" y1="40" x2="128" y2="16" stroke="currentColor" stroke-linecap="round" stroke-linejoin="round" stroke-width="16"/>
		<circle cx="128" cy="128" r="56" stroke="currentColor" stroke-linecap="round" stroke-linejoin="round" stroke-width="16"/>
		<line x1="64" y1="64" x2="48" y2="48" stroke="currentColor" stroke-linecap="round" stroke-linejoin="round" stroke-width="16"/>
		<line x1="64" y1="192" x2="48" y2="208" stroke="currentColor" stroke-linecap="round" stroke-linejoin="round" stroke-width="16"/>
		<line x1="192" y1="64" x2="208" y2="48" stroke="currentColor" stroke-linecap="round" stroke-linejoin="round" stroke-width="16"/>
		<line x1="192" y1="192" x2="208" y2="208" stroke="currentColor" stroke-linecap="round" stroke-linejoin="round" stroke-width="16"/>
		<line x1="40" y1="128" x2="16" y2="128" stroke="currentColor" stroke-linecap="round" stroke-linejoin="round" stroke-width="16"/>
		<line x1="128" y1="216" x2="128" y2="240" stroke="currentColor" stroke-linecap="round" stroke-linejoin="round" stroke-width="16"/>
		<line x1="216" y1="128" x2="240" y2="128" stroke="currentColor" stroke-linecap="round" stroke-linejoin="round" stroke-width="16"/>
	</symbol>

	<!-- Moon icon -->
	<symbol id="moon" viewBox="0 0 256 256" fill="currentColor">
		<path d="M223.9 160.6A96 96 0 0 1 95.4 32.1a8 8 0 0 0-9.4 11.3A80 80 0 1 0 212.6 170a8 8 0 0 0 11.3-9.4Z"/>
	</symbol>

	<!-- Caret down (For acordion) -->
  <symbol id="icon-chevron-down" viewBox="0 0 256 256">
    <rect width="256" height="256" fill="none"/>
    <polyline points="208 96 128 176 48 96" 
			fill="none" 
			stroke="currentColor" 
			stroke-linecap="round" 
			stroke-linejoin="round" 
			stroke-width="16"/>
  </symbol>

	<!-- Caret up -->
  <symbol id="icon-chevron-up" viewBox="0 0 256 256">
    <rect width="256" height="256" fill="none"/>
    <polyline points="56 120 128 48 200 120"
			fill="none"
			stroke="currentColor"
			stroke-linecap="round"
			stroke-linejoin="round"
			stroke-width="16"/>
  </symbol>

	<!-- Home icon -->
	<symbol id="icon-home" viewBox="0 0 256 256" >
		<path
			fill="currentColor"
			d="M240,208H224V136l2.34,2.34A8,8,0,0,0,237.66,127L139.31,28.68a16,16,0,0,0-22.62,0L18.34,127a8,8,0,0,0,11.32,11.31L32,136v72H16a8,8,0,0,0,0,16H240a8,8,0,0,0,0-16ZM48,120l80-80,80,80v88H160V152a8,8,0,0,0-8-8H104a8,8,0,0,0-8,8v56H48Zm96,88H112V160h32Z"
		/>
	</symbol>

	<!-- Market icon -->
	<symbol id="icon-markets" viewBox="0 0 256 256">
		<rect x="40" y="100" width="20" height="108" rx="4" fill="currentColor"/>
		<rect x="80" y="140" width="20" height="68" rx="4" fill="currentColor"/>
		<rect x="120" y="80" width="20" height="128" rx="4" fill="currentColor"/>
		<rect x="160" y="120" width="20" height="88" rx="4" fill="currentColor"/>
		<rect x="200" y="60" width="20" height="148" rx="4" fill="currentColor"/>
	</symbol>

	<!-- Icon watchlist -->
	<symbol id="icon-watchlist" viewBox="0 0 256 220">
		<path
			fill="currentColor"
			d="M184,32H72A16,16,0,0,0,56,48V200a8,8,0,0,0,12.24,6.78L128,171.43l59.77,35.35A8,8,0,0,0,200,200V48A16,16,0,0,0,184,32Zm0,157.57-51.77-32.35a8,8,0,0,0-8.48,0L72,189.57V48H184Z"
		/>
	</symbol>

	<!-- Holdings icon -->
	<symbol id="icon-holdings" viewBox="0 0 256 220">
		<ellipse cx="128" cy="160" rx="85" ry="24" fill="currentColor"/>
		<ellipse cx="128" cy="112" rx="85" ry="24" fill="currentColor"/>
		<ellipse cx="128" cy="64" rx="85" ry="24" fill="currentColor"/>
	</symbol>




















</svg>
